#!OML:ASF F:\VICON\USERDATA\INSTALL\rory3\rory3.ASF
:FULLY-SPECIFIED
:DEGREES
72
root 0.08380324165110314 17.740543686774284 26.16247295121904 -2.549315046091346 0.5135884160671158 -1.5564560941924328
lfemur 7.8154111037249265 -5.216524221640027 -20.70480427458001
ltibia 41.80487655296747
lfoot 1.0842897969859164 -9.666117461133977
ltoes -16.743601700151476
rfemur -22.379394046298742 5.431491584574202 25.551605837464642
rtibia 30.670358550122472
rfoot -4.134564423094783 -3.631542828546172
rtoes 5.8664107288930385
lowerback 8.656254046111341 -0.8395391111954628 0.08401098452029476
upperback 0.5246687241891003 -1.1714834152330584 2.413960188354676
thorax -4.574736345720299 -0.5662580296880697 2.786432023854613
lowerneck -16.900100720467716 -2.4566715694995556 -2.362798508017572
upperneck 20.261453987416292 -3.1204602350037343 1.4356294288251825
head 9.218392761475874 -1.4864650643508261 0.48746159551648494
lclavicle -1.9532406168570555e-15 9.067692339123581e-16
lhumerus -24.498419894799806 -3.5066590334167875 83.84728484297526
lradius 30.648313264734107
lwrist 7.209989575225092
lhand -29.142807977544713 20.70780764018132
lfingers 7.12502
lthumb -2.3803275301806597 51.042557186311946
rclavicle -1.9532406170790627e-15 9.067692337084531e-16
rhumerus -30.1114928952359 -21.410963964094893 -77.30925951314606
rradius 22.41005104825467
rwrist 8.726389719642428
rhand -17.63078186447396 22.024448478452566
rfingers 7.12502
rthumb 8.566787100609695 -7.818650131113649
73
root 0.007799069247003854 17.791592955996965 27.174665887350123 -3.102263626296785 -0.14372166013724863 -2.925357757597653
lfemur 2.2347793106738045 -4.079618485698411 -17.856904428944777
ltibia 52.470506368632186
lfoot 9.62005467409374 -13.988350998116506
ltoes -9.350434013086634
rfemur -19.15132110473204 5.6472799499826 28.008186842328595
rtibia 30.626930647857666
rfoot -6.2314100426300465 -4.0630093976310135
rtoes 7.783198140087666
lowerback 8.701474453092592 -0.49862448260602366 1.5451884741068773
upperback 0.5724494935077974 -0.5823467509764879 2.641701769972494
thorax -4.576096070819996 -0.2994243205568782 2.1232068485108115
lowerneck -16.762244343163136 -2.472539634092715 -2.290040199468721
upperneck 20.242279743526055 -3.1366056476237913 1.3933791158432454
head 9.204205669918979 -1.4948508754000749 0.46343780328173223
lclavicle -1.9532406168508732e-15 9.067692339165984e-16
lhumerus -25.910300502408816 -2.925248785345966 84.2164483135872
lradius 30.067120103629986
lwrist 7.023665849919186
lhand -27.88430305400193 22.953643504349877
lfingers 7.12502
lthumb -1.1635880724585088 53.2212934933521
rclavicle -1.9532406170796737e-15 9.067692337064163e-16
rhumerus -29.447327283337216 -20.169947887436905 -77.84296072321882
rradius 22.518453694753312
rwrist 8.249721455514907
rhand -17.64053234651707 21.594818203490455
rfingers 7.12502
rthumb 8.566127876375576 -8.200707936994974
74
root -0.0789270618348249 17.88644474902465 27.88651386152614 -3.514762564453867 -0.35507505302103803 -4.0664765034683015
lfemur -3.4549798861818584 -2.8745521451903637 -15.647787005869041
ltibia 61.5122160336454
lfoot 12.701812535591326 -14.96621814678085
ltoes -4.163466072000101
rfemur -15.942773173685634 5.888228021530147 29.84943112827979
rtibia 29.966728926820174
rfoot -7.822928476173004 -5.215550121631375
rtoes 7.500146016047285
lowerback 9.003411596794304 -0.1934738171247674 2.3214547290301857
upperback 0.6098698764253625 -0.08170018587775174 2.7286034825360295
thorax -4.636785166890253 -0.06295305098620307 1.76904504217071
lowerneck -16.596849474882383 -2.4979165922636146 -2.2137709713901104
upperneck 20.124910197000265 -3.1727809948683916 1.3630870997377977
head 9.141024577600806 -1.5091314304114243 0.43544423867943405
lclavicle -1.9532406168521658e-15 9.067692339142334e-16
lhumerus -27.26524022801911 -2.598536427770404 84.59415797892204
lradius 29.50179763219375
lwrist 6.661218001811065
lhand -26.119903630405368 25.45709446967483
lfingers 7.12502
lthumb 0.547124709643259 55.724891410316104
rclavicle -1.9532406170842747e-15 9.067692337008874e-16
rhumerus -28.966933489710026 -19.025569265429866 -78.3146742253761
rradius 22.886683190772587
rwrist 7.746541990119289
rhand -17.631320678941545 21.438673520909568
rfingers 7.12502
rthumb 8.570204227963911 -8.378193519625322
75
root -0.15411350663970697 17.963545820739984 28.247751542395733 -3.7644906731890106 -0.44228656231925534 -4.876165961281362
lfemur -8.95096077160771 -1.3243415068248428 -14.238378018844458
ltibia 67.59127790407832
lfoot 9.426178984719854 -13.68900113261527
ltoes -1.2684039323913168
rfemur -12.882074470127407 6.028662693736922 31.157114966346615
rtibia 29.268070819833287
rfoot -9.818532112637634 -6.004524227592421
rtoes 6.687402654312756
lowerback 9.220025440760196 0.1124768726098977 2.8763976239838653
upperback 0.6410574557286624 0.3808742548166515 2.6662191203088788
thorax -4.67068687619368 0.160157004518181 1.3597927816982047
lowerneck -16.460948035367572 -2.534793908150081 -2.1644543257404414
upperneck 20.04961499532052 -3.2510120429088714 1.4571204714723245
head 9.095529190351025 -1.5347083546728966 0.4590209756412068
lclavicle -1.9532406168476058e-15 9.067692339173463e-16
lhumerus -28.531806312768225 -2.489637706928879 84.8888520630856
lradius 28.938072961954006
lwrist 6.044384337427658
lhand -27.15892681319334 23.979287690023128
lfingers 7.12502
lthumb -0.5278178341200641 54.26969115927377
rclavicle -1.9532406170879756e-15 9.067692336965315e-16
rhumerus -28.45824914483034 -17.884859628512046 -78.82502816218177
rradius 23.41919377125034
rwrist 6.93604602858209
rhand -17.58929606307381 21.705822367233317
rfingers 7.12502
rthumb 8.608413462403648 -8.17322270653086
76
root -0.21037166238064903 18.008746753482402 28.713941346542065 -3.8642503392722642 -0.7980210610475391 -5.348882277937442
lfemur -14.034593722088605 0.2430958507363914 -13.488253697087295
ltibia 70.65818155580058
lfoot 2.435070310894093 -11.380116391382046
ltoes -3.20544502621989
rfemur -9.712213633840317 6.060171860662912 32.04263481286958
rtibia 28.500063301337107
rfoot -12.072630095129925 -6.289929809983383
rtoes 5.93545531325446
lowerback 9.337089991948394 0.44564786186799754 3.2693421090686403
upperback 0.6714063415904924 0.8387296109293354 2.522543400748181
thorax -4.703241455728253 0.39144972229271235 0.966253492178309
lowerneck -16.355031534692692 -2.5662970171900987 -2.1009597664694626
upperneck 20.03684567169903 -3.3116661970786234 1.5028300933743681
head 9.08833409149441 -1.549705917548743 0.45642074301191315
lclavicle -1.953240616847728e-15 9.067692339163428e-16
lhumerus -29.499165502290275 -2.210065162581924 85.05096582593681
lradius 28.153759655877217
lwrist 5.163560569279263
lhand -26.23103205244057 25.185206988015157
lfingers 7.12502
lthumb 0.5228385182435495 55.6848941437356
rclavicle -1.953240617090229e-15 9.067692336936383e-16
rhumerus -27.99820559489978 -16.907750091038658 -79.32690644566779
rradius 24.0873149162806
rwrist 5.776714962496665
rhand -17.621208462258085 22.052551194931397
rfingers 7.12502
rthumb 8.576416077677287 -7.8702137889181865
77
root -0.24439995314815383 18.03075072591249 29.08518224039134 -3.7683003658170047 -1.4202729910943492 -5.805903190567893
lfemur -18.365875962201685 1.7724971789125124 -12.973243924047111
ltibia 70.70225832195925
lfoot -3.0650918831279728 -8.952422777104816
ltoes -7.30328672076216
rfemur -6.880803689846516 5.928022949565336 32.93308053442059
rtibia 27.880679715865547
rfoot -14.13055411680303 -6.088629395534134
rtoes 5.663457883919955
lowerback 9.34724084804841 0.8147439551797481 3.86778006573382
upperback 0.6947019279916875 1.4616242278422094 2.3841323131670897
thorax -4.675519540651002 0.6890824524038962 0.39147017823800406
lowerneck -16.31378397181218 -2.597376223646493 -2.0348311316781524
upperneck 20.010090168374983 -3.3552262459268722 1.4847192482543896
head 9.081005706277601 -1.56425136583354 0.43396964928461923
lclavicle -1.953240616841353e-15 9.067692339215259e-16
lhumerus -30.444330316699862 -1.731578324406655 85.09064783989871
lradius 27.404995890988786
lwrist 4.636734792013316
lhand -26.262730381129295 25.026320592338003
lfingers 7.12502
lthumb 0.38512115248785184 55.340623157501746
rclavicle -1.9532406170937363e-15 9.067692336898885e-16
rhumerus -27.45956412553789 -15.944231495359087 -79.73280847496517
rradius 24.72433086302786
rwrist 4.6878674625956664
rhand -17.742105606014476 22.213614342434852
rfingers 7.12502
rthumb 8.508869653417534 -7.641118300836329
